<?xml version="1.0" encoding="UTF-8" standalone="no"?>
<!-- Created with Inkscape (http://www.inkscape.org/) -->

<svg
   xmlns:dc="http://purl.org/dc/elements/1.1/"
   xmlns:cc="http://creativecommons.org/ns#"
   xmlns:rdf="http://www.w3.org/1999/02/22-rdf-syntax-ns#"
   xmlns:svg="http://www.w3.org/2000/svg"
   xmlns="http://www.w3.org/2000/svg"
   xmlns:sodipodi="http://sodipodi.sourceforge.net/DTD/sodipodi-0.dtd"
   xmlns:inkscape="http://www.inkscape.org/namespaces/inkscape"
   sodipodi:docname="case.svg"
   inkscape:version="0.48.2 r9819"
   version="1.1"
   id="svg2"
   height="1062.9921"
   width="1771.6534">
  <sodipodi:namedview
     id="base"
     pagecolor="#ffffff"
     bordercolor="#666666"
     borderopacity="1.0"
     inkscape:pageopacity="0.0"
     inkscape:pageshadow="2"
     inkscape:zoom="0.5"
     inkscape:cx="1231.0868"
     inkscape:cy="176.50267"
     inkscape:document-units="mm"
     inkscape:current-layer="layer2"
     showgrid="false"
     units="mm"
     inkscape:window-width="1525"
     inkscape:window-height="878"
     inkscape:window-x="67"
     inkscape:window-y="-8"
     inkscape:window-maximized="1" />
  <defs
     id="defs4" />
  <metadata
     id="metadata7">
    <rdf:RDF>
      <cc:Work
         rdf:about="">
        <dc:format>image/svg+xml</dc:format>
        <dc:type
           rdf:resource="http://purl.org/dc/dcmitype/StillImage" />
        <dc:title />
      </cc:Work>
    </rdf:RDF>
  </metadata>
  <g
     sodipodi:insensitive="true"
     style="display:inline"
     transform="translate(0,10.631254)"
     id="layer1"
     inkscape:groupmode="layer"
     inkscape:label="Ebene 1">
    <g
       transform="translate(354.62925,-318)"
       id="g3936">
      <path
         style="fill:none;stroke:#2b0000;stroke-width:1;stroke-opacity:1"
         d="M -169.60154,1226.6934 C -169.65673,1226.6981 -169.70303,1226.7183 -169.75779,1226.7247 -169.87787,1226.7387 -169.98377,1226.7652 -170.10154,1226.7872 -170.16439,1226.7987 -170.22709,1226.8048 -170.28904,1226.8184 -170.56464,1226.8805 -170.84284,1226.9648 -171.10154,1227.0684 -171.26033,1227.1317 -171.42005,1227.2097 -171.57029,1227.2872 -171.83202,1227.4221 -172.0875,1227.5819 -172.32029,1227.7559 -172.37392,1227.7965 -172.42449,1227.8383 -172.47654,1227.8809 -172.62317,1227.9994 -172.75007,1228.123 -172.88279,1228.2559 -173.01118,1228.385 -173.14294,1228.5201 -173.25779,1228.6622 -173.28183,1228.692 -173.2969,1228.7256 -173.32029,1228.7559 -173.48873,1228.9736 -173.65521,1229.1993 -173.78904,1229.4434 -173.80716,1229.4767 -173.83412,1229.5035 -173.85154,1229.5372 -173.90352,1229.637 -173.93074,1229.746 -173.97654,1229.8497 -174.04361,1230.002 -174.11133,1230.1595 -174.16404,1230.3184 -174.2012,1230.4305 -174.22807,1230.5472 -174.25779,1230.6622 -174.28178,1230.7553 -174.33241,1230.8481 -174.35154,1230.9434 -174.35948,1230.9834 -174.34451,1231.0282 -174.35154,1231.0684 -174.37022,1231.174 -174.40149,1231.273 -174.41404,1231.3809 L -179.78904,1277.7247 C -189.1145,1281.8303 -195.63279,1291.1617 -195.63279,1302.0059 -195.63279,1316.6459 -183.77099,1328.5059 -169.13279,1328.5059 -154.49459,1328.5059 -142.63279,1316.6459 -142.63279,1302.0059 -142.63279,1291.1587 -149.14698,1281.8285 -158.47654,1277.7247 L -163.82029,1231.6622 -163.85154,1231.3809 C -163.88588,1231.083 -163.92563,1230.7882 -164.00779,1230.5059 -164.02006,1230.4633 -164.05701,1230.423 -164.07029,1230.3809 -164.12645,1230.2048 -164.1841,1230.0177 -164.25779,1229.8497 -164.33057,1229.6837 -164.41884,1229.5379 -164.50779,1229.3809 -164.59387,1229.229 -164.68866,1229.0858 -164.78904,1228.9434 -164.88848,1228.8024 -164.98888,1228.6679 -165.10154,1228.5372 -165.27511,1228.3358 -165.46153,1228.1484 -165.66404,1227.9747 -165.78329,1227.8719 -165.91114,1227.7852 -166.03904,1227.6934 -166.24713,1227.5441 -166.467,1227.4054 -166.69529,1227.2872 -166.84875,1227.2081 -167.00166,1227.1328 -167.16404,1227.0684 -167.28288,1227.0208 -167.38515,1226.9512 -167.50779,1226.9122 -167.65581,1226.8657 -167.82262,1226.8523 -167.97654,1226.8184 -168.02972,1226.8068 -168.07908,1226.7972 -168.13279,1226.7872 -168.2582,1226.7635 -168.37897,1226.7396 -168.50779,1226.7247 -168.68292,1226.7045 -168.85984,1226.696 -169.03904,1226.6934 -169.08904,1226.6927 -169.14555,1226.6928 -169.19529,1226.6934 -169.3246,1226.6951 -169.47427,1226.6826 -169.60154,1226.6934 z"
         id="rect3921"
         inkscape:connector-curvature="0" />
      <path
         inkscape:connector-curvature="0"
         id="path3934"
         d="M 893.39056,1226.6934 C 893.33537,1226.6981 893.28907,1226.7183 893.23431,1226.7247 893.11423,1226.7387 893.00833,1226.7652 892.89056,1226.7872 892.82771,1226.7987 892.76501,1226.8048 892.70306,1226.8184 892.42746,1226.8805 892.14926,1226.9648 891.89056,1227.0684 891.73177,1227.1317 891.57205,1227.2097 891.42181,1227.2872 891.16008,1227.4221 890.9046,1227.5819 890.67181,1227.7559 890.61818,1227.7965 890.56761,1227.8383 890.51556,1227.8809 890.36893,1227.9994 890.24203,1228.123 890.10931,1228.2559 889.98092,1228.385 889.84916,1228.5201 889.73431,1228.6622 889.71027,1228.692 889.6952,1228.7256 889.67181,1228.7559 889.50337,1228.9736 889.33689,1229.1993 889.20306,1229.4434 889.18494,1229.4767 889.15798,1229.5035 889.14056,1229.5372 889.08858,1229.637 889.06136,1229.746 889.01556,1229.8497 888.94849,1230.002 888.88077,1230.1595 888.82806,1230.3184 888.7909,1230.4305 888.76403,1230.5472 888.73431,1230.6622 888.71032,1230.7553 888.65969,1230.8481 888.64056,1230.9434 888.63262,1230.9834 888.64759,1231.0282 888.64056,1231.0684 888.62188,1231.174 888.59061,1231.273 888.57806,1231.3809 L 883.20306,1277.7247 C 873.8776,1281.8303 867.35931,1291.1617 867.35931,1302.0059 867.35931,1316.6459 879.22111,1328.5059 893.85931,1328.5059 908.49751,1328.5059 920.35931,1316.6459 920.35931,1302.0059 920.35931,1291.1587 913.84512,1281.8285 904.51556,1277.7247 L 899.17181,1231.6622 899.14056,1231.3809 C 899.10622,1231.083 899.06647,1230.7882 898.98431,1230.5059 898.97204,1230.4633 898.93509,1230.423 898.92181,1230.3809 898.86565,1230.2048 898.808,1230.0177 898.73431,1229.8497 898.66153,1229.6837 898.57326,1229.5379 898.48431,1229.3809 898.39823,1229.229 898.30344,1229.0858 898.20306,1228.9434 898.10362,1228.8024 898.00322,1228.6679 897.89056,1228.5372 897.71699,1228.3358 897.53057,1228.1484 897.32806,1227.9747 897.20881,1227.8719 897.08096,1227.7852 896.95306,1227.6934 896.74497,1227.5441 896.5251,1227.4054 896.29681,1227.2872 896.14335,1227.2081 895.99044,1227.1328 895.82806,1227.0684 895.70922,1227.0208 895.60695,1226.9512 895.48431,1226.9122 895.33629,1226.8657 895.16948,1226.8523 895.01556,1226.8184 894.96238,1226.8068 894.91302,1226.7972 894.85931,1226.7872 894.7339,1226.7635 894.61313,1226.7396 894.48431,1226.7247 894.30918,1226.7045 894.13226,1226.696 893.95306,1226.6934 893.90306,1226.6927 893.84655,1226.6928 893.79681,1226.6934 893.6675,1226.6951 893.51783,1226.6826 893.39056,1226.6934 z"
         style="fill:none;stroke:#2b0000;stroke-width:1;stroke-opacity:1" />
    </g>
    <rect
       ry="20"
       y="226.48819"
       x="89.401573"
       height="396.8504"
       width="1254.3307"
       id="rect3874"
       style="fill:none;stroke:#ff0000;stroke-width:1.00260675;stroke-opacity:1" />
    <path
       inkscape:connector-curvature="0"
       inkscape:label="part"
       style="fill:none;stroke:#000000"
       d="M 14.992127,124.64567 14.992127,92.50787 25.622048,92.50787 25.622048,50.484252 14.992127,50.484252 14.992127,18.346457"
       id="path3829" />
    <path
       inkscape:connector-curvature="0"
       inkscape:label="part"
       style="fill:none;stroke:#000000"
       d="M 1418.1417,18.346457 1418.1417,50.484252 1407.5118,50.484252 1407.5118,92.50787 1418.1417,92.50787 1418.1417,124.64567"
       id="path3825" />
    <path
       inkscape:connector-curvature="0"
       inkscape:label="part"
       style="fill:none;stroke:#000000"
       d="M 1418.1417,124.64567 1382.4116,124.64567 1382.4116,135.27559 1345.9373,135.27559 1345.9373,124.64567 1310.4552,124.64567 1310.4552,135.27559 1273.9809,135.27559 1273.9809,124.64567 1238.4988,124.64567 1238.4988,135.27559 1202.0245,135.27559 1202.0245,124.64567 1166.5424,124.64567 1166.5424,135.27559 1130.0681,135.27559 1130.0681,124.64567 1094.586,124.64567 1094.586,135.27559 1058.1118,135.27559 1058.1118,124.64567 1022.6296,124.64567 1022.6296,135.27559 986.15536,135.27559 986.15536,124.64567 950.67323,124.64567 950.67323,135.27559 914.19897,135.27559 914.19897,124.64567 878.71684,124.64567 878.71684,135.27559 842.24258,135.27559 842.24258,124.64567 806.76045,124.64567 806.76045,135.27559 770.28619,135.27559 770.28619,124.64567 734.80406,124.64567 734.80406,135.27559 698.3298,135.27559 698.3298,124.64567 662.84767,124.64567 662.84767,135.27559 626.37341,135.27559 626.37341,124.64567 590.89128,124.64567 590.89128,135.27559 554.41702,135.27559 554.41702,124.64567 518.93489,124.64567 518.93489,135.27559 482.46063,135.27559 482.46063,124.64567 446.9785,124.64567 446.9785,135.27559 410.50424,135.27559 410.50424,124.64567 375.02211,124.64567 375.02211,135.27559 338.54785,135.27559 338.54785,124.64567 303.06572,124.64567 303.06572,135.27559 266.59146,135.27559 266.59146,124.64567 231.10933,124.64567 231.10933,135.27559 194.63507,135.27559 194.63507,124.64567 159.15294,124.64567 159.15294,135.27559 122.67868,135.27559 122.67868,124.64567 87.196548,124.64567 87.196548,135.27559 50.72229,135.27559 50.72229,124.64567 14.992127,124.64567"
       id="path3827" />
    <path
       inkscape:connector-curvature="0"
       inkscape:label="part"
       style="fill:none;stroke:#000000"
       d="M 14.992127,18.346457 50.72229,18.346457 50.72229,7.716535 87.196548,7.716535 87.196548,18.346457 122.67868,18.346457 122.67868,7.716535 159.15294,7.716535 159.15294,18.346457 194.63507,18.346457 194.63507,7.716535 231.10933,7.716535 231.10933,18.346457 266.59146,18.346457 266.59146,7.716535 303.06572,7.716535 303.06572,18.346457 338.54785,18.346457 338.54785,7.716535 375.02211,7.716535 375.02211,18.346457 410.50424,18.346457 410.50424,7.716535 446.9785,7.716535 446.9785,18.346457 482.46063,18.346457 482.46063,7.716535 518.93489,7.716535 518.93489,18.346457 554.41702,18.346457 554.41702,7.716535 590.89128,7.716535 590.89128,18.346457 626.37341,18.346457 626.37341,7.716535 662.84767,7.716535 662.84767,18.346457 698.3298,18.346457 698.3298,7.716535 734.80406,7.716535 734.80406,18.346457 770.28619,18.346457 770.28619,7.716535 806.76045,7.716535 806.76045,18.346457 842.24258,18.346457 842.24258,7.716535 878.71684,7.716535 878.71684,18.346457 914.19897,18.346457 914.19897,7.716535 950.67323,7.716535 950.67323,18.346457 986.15536,18.346457 986.15536,7.716535 1022.6296,7.716535 1022.6296,18.346457 1058.1118,18.346457 1058.1118,7.716535 1094.586,7.716535 1094.586,18.346457 1130.0681,18.346457 1130.0681,7.716535 1166.5424,7.716535 1166.5424,18.346457 1202.0245,18.346457 1202.0245,7.716535 1238.4988,7.716535 1238.4988,18.346457 1273.9809,18.346457 1273.9809,7.716535 1310.4552,7.716535 1310.4552,18.346457 1345.9373,18.346457 1345.9373,7.716535 1382.4116,7.716535 1382.4116,18.346457 1418.1417,18.346457"
       id="path3823" />
    <g
       transform="translate(-2,-10)"
       id="g3940">
      <path
         id="path3815"
         d="M 17.417721,860.30196 53.643951,860.30196 53.643951,870.93188 89.126081,870.93188 89.126081,860.30196 125.60034,860.30196 125.60034,870.93188 161.08247,870.93188 161.08247,860.30196 197.55673,860.30196 197.55673,870.93188 233.03886,870.93188 233.03886,860.30196 269.51312,860.30196 269.51312,870.93188 304.99525,870.93188 304.99525,860.30196 341.46951,860.30196 341.46951,870.93188 376.95164,870.93188 376.95164,860.30196 413.4259,860.30196 413.4259,870.93188 448.90803,870.93188 448.90803,860.30196 485.38229,860.30196 485.38229,870.93188 520.86442,870.93188 520.86442,860.30196 557.33868,860.30196 557.33868,870.93188 592.82081,870.93188 592.82081,860.30196 629.29507,860.30196 629.29507,870.93188 664.7772,870.93188 664.7772,860.30196 701.25146,860.30196 701.25146,870.93188 736.73359,870.93188 736.73359,860.30196 773.20785,860.30196 773.20785,870.93188 808.68998,870.93188 808.68998,860.30196 845.16424,860.30196 845.16424,870.93188 880.6464,870.93188 880.6464,860.30196 917.1206,860.30196 917.1206,870.93188 952.6028,870.93188 952.6028,860.30196 989.077,860.30196 989.077,870.93188 1024.5591,870.93188 1024.5591,860.30196 1061.0334,860.30196 1061.0334,870.93188 1096.5155,870.93188 1096.5155,860.30196 1132.9898,860.30196 1132.9898,870.93188 1168.4719,870.93188 1168.4719,860.30196 1204.9462,860.30196 1204.9462,870.93188 1240.4283,870.93188 1240.4283,860.30196 1276.9026,860.30196 1276.9026,870.93188 1312.3847,870.93188 1312.3847,860.30196 1348.859,860.30196 1348.859,870.93188 1384.3411,870.93188 1384.3411,860.30196 1420.5673,860.30196"
         style="fill:none;stroke:#000000"
         inkscape:label="part"
         inkscape:connector-curvature="0" />
      <path
         id="path3817"
         d="M 1420.5673,860.30196 1420.5673,897.87282 1409.9374,897.87282 1409.9374,934.6996 1420.5673,934.6996 1420.5673,972.5185 1409.9374,972.5185 1409.9374,1009.3453 1420.5673,1009.3453 1420.5673,1047.1642 1409.9374,1047.1642"
         style="fill:none;stroke:#000000"
         inkscape:label="part"
         inkscape:connector-curvature="0"
         sodipodi:nodetypes="ccccccccccc" />
      <path
         id="path3821"
         d="M 1410.6369,1047.1642 17.417721,1047.1642 17.417721,1009.3453 28.047641,1009.3453 28.047641,972.5185 17.417721,972.5185 17.417721,934.6996 28.047641,934.6996 28.047641,897.87282 17.417721,897.87282 17.417721,860.30196"
         style="fill:none;stroke:#000000"
         inkscape:label="part"
         inkscape:connector-curvature="0"
         sodipodi:nodetypes="ccccccccccc" />
    </g>
    <g
       transform="translate(9e-7,-150)"
       id="g3868">
      <path
         id="path3807"
         d="M 1594.4882,165.62205 1626.1299,165.62205 1626.1299,154.99213 1669.1457,154.99213 1669.1457,165.62205 1700.7874,165.62205"
         style="fill:none;stroke:#000000"
         inkscape:label="part"
         inkscape:connector-curvature="0" />
      <path
         id="path3809"
         d="M 1700.7874,165.62205 1700.7874,192.06693 1711.4173,192.06693 1711.4173,229.88583 1700.7874,229.88583 1700.7874,266.7126 1711.4173,266.7126 1711.4173,304.5315 1700.7874,304.5315 1700.7874,341.35827 1711.4173,341.35827 1711.4173,677.75984 1700.7874,677.75984 1700.7874,704.20472"
         style="fill:none;stroke:#000000"
         inkscape:label="part"
         inkscape:connector-curvature="0"
         sodipodi:nodetypes="cccccccccccccc" />
      <path
         id="path3811"
         d="M 1700.7874,704.20472 1669.1457,704.20472 1669.1457,714.83465 1626.1299,714.83465 1626.1299,704.20472 1594.4882,704.20472"
         style="fill:none;stroke:#000000"
         inkscape:label="part"
         inkscape:connector-curvature="0" />
      <path
         id="path3813"
         d="M 1594.4882,704.20472 1594.4882,677.75984 1583.8583,677.75984 1583.8583,639.94094 1594.4882,639.94094 1594.4882,603.11417 1583.8583,603.11417 1583.8583,565.29528 1594.4882,565.29528 1594.4882,528.4685 1583.8583,528.4685 1583.8583,490.64961 1594.4882,490.64961 1594.4882,453.82283 1583.8583,453.82283 1583.8583,416.00394 1594.4882,416.00394 1594.4882,379.17717 1583.8583,379.17717 1583.8583,341.35827 1594.4882,341.35827 1594.4882,304.5315 1583.8583,304.5315 1583.8583,266.7126 1594.4882,266.7126 1594.4882,229.88583 1583.8583,229.88583 1583.8583,192.06693 1594.4882,192.06693 1594.4882,165.62205"
         style="fill:none;stroke:#000000"
         inkscape:label="part"
         inkscape:connector-curvature="0" />
    </g>
    <g
       transform="translate(-2,-10)"
       id="g3876">
      <path
         id="path3799"
         d="M 16.992131,154.99213 53.218351,154.99213 53.218351,165.62205 88.700481,165.62205 88.700481,154.99213 125.17474,154.99213 125.17474,165.62205 160.65687,165.62205 160.65687,154.99213 197.13113,154.99213 197.13113,165.62205 232.61326,165.62205 232.61326,154.99213 269.08752,154.99213 269.08752,165.62205 304.56965,165.62205 304.56965,154.99213 341.04391,154.99213 341.04391,165.62205 376.52604,165.62205 376.52604,154.99213 413.0003,154.99213 413.0003,165.62205 448.48243,165.62205 448.48243,154.99213 484.95669,154.99213 484.95669,165.62205 520.43882,165.62205 520.43882,154.99213 556.91308,154.99213 556.91308,165.62205 592.39522,165.62205 592.39522,154.99213 628.86947,154.99213 628.86947,165.62205 664.35161,165.62205 664.35161,154.99213 700.82586,154.99213 700.82586,165.62205 736.308,165.62205 736.308,154.99213 772.78225,154.99213 772.78225,165.62205 808.26439,165.62205 808.26439,154.99213 844.73864,154.99213 844.73864,165.62205 880.2208,165.62205 880.2208,154.99213 916.695,154.99213 916.695,165.62205 952.1772,165.62205 952.1772,154.99213 988.6514,154.99213 988.6514,165.62205 1024.1336,165.62205 1024.1336,154.99213 1060.6078,154.99213 1060.6078,165.62205 1096.0899,165.62205 1096.0899,154.99213 1132.5642,154.99213 1132.5642,165.62205 1168.0463,165.62205 1168.0463,154.99213 1204.5206,154.99213 1204.5206,165.62205 1240.0027,165.62205 1240.0027,154.99213 1276.477,154.99213 1276.477,165.62205 1311.9591,165.62205 1311.9591,154.99213 1348.4334,154.99213 1348.4334,165.62205 1383.9155,165.62205 1383.9155,154.99213 1420.1417,154.99213"
         style="fill:none;stroke:#000000"
         inkscape:label="part"
         inkscape:connector-curvature="0" />
      <path
         id="path3801"
         d="M 1420.1417,154.99213 1420.1417,192.56299 1409.5118,192.56299 1409.5118,229.38976 1420.1417,229.38976 1420.1417,267.20866 1409.5118,267.20866 1409.5118,304.03543 1420.1417,304.03543 1420.1417,341.85433 1409.5118,341.85433 1409.5118,378.6811 1420.1417,378.6811 1420.1417,416.5 1409.5118,416.5 1409.5118,453.32677 1420.1417,453.32677 1420.1417,491.14567 1409.5118,491.14567 1409.5118,527.97244 1420.1417,527.97244 1420.1417,565.79134 1409.5118,565.79134 1409.5118,602.61811 1420.1417,602.61811 1420.1417,640.43701 1409.5118,640.43701 1409.5118,677.26378 1420.1417,677.26378 1420.1417,714.83465"
         style="fill:none;stroke:#000000"
         inkscape:label="part"
         inkscape:connector-curvature="0" />
      <path
         id="path3803"
         d="M 1420.1417,714.83465 1383.9155,714.83465 1383.9155,704.20472 1348.4334,704.20472 1348.4334,714.83465 1311.9591,714.83465 1311.9591,704.20472 1276.477,704.20472 1276.477,714.83465 1240.0027,714.83465 1240.0027,704.20472 1204.5206,704.20472 1204.5206,714.83465 1168.0463,714.83465 1168.0463,704.20472 1132.5642,704.20472 1132.5642,714.83465 1096.0899,714.83465 1096.0899,704.20472 1060.6078,704.20472 1060.6078,714.83465 1024.1336,714.83465 1024.1336,704.20472 988.6514,704.20472 988.6514,714.83465 952.1772,714.83465 952.1772,704.20472 916.695,704.20472 916.695,714.83465 880.2208,714.83465 880.2208,704.20472 844.73864,704.20472 844.73864,714.83465 808.26439,714.83465 808.26439,704.20472 772.78225,704.20472 772.78225,714.83465 736.308,714.83465 736.308,704.20472 700.82586,704.20472 700.82586,714.83465 664.35161,714.83465 664.35161,704.20472 628.86947,704.20472 628.86947,714.83465 592.39522,714.83465 592.39522,704.20472 556.91308,704.20472 556.91308,714.83465 520.43882,714.83465 520.43882,704.20472 484.95669,704.20472 484.95669,714.83465 448.48243,714.83465 448.48243,704.20472 413.0003,704.20472 413.0003,714.83465 376.52604,714.83465 376.52604,704.20472 341.04391,704.20472 341.04391,714.83465 304.56965,714.83465 304.56965,704.20472 269.08752,704.20472 269.08752,714.83465 232.61326,714.83465 232.61326,704.20472 197.13113,704.20472 197.13113,714.83465 160.65687,714.83465 160.65687,704.20472 125.17474,704.20472 125.17474,714.83465 88.700481,714.83465 88.700481,704.20472 53.218351,704.20472 53.218351,714.83465 16.992131,714.83465"
         style="fill:none;stroke:#000000"
         inkscape:label="part"
         inkscape:connector-curvature="0" />
      <path
         id="path3805"
         d="M 16.992131,714.83465 16.992131,677.26378 27.622051,677.26378 27.622051,640.43701 16.992131,640.43701 16.992131,602.61811 27.622051,602.61811 27.622051,565.79134 16.992131,565.79134 16.992131,527.97244 27.622051,527.97244 27.622051,491.14567 16.992131,491.14567 16.992131,453.32677 27.622051,453.32677 27.622051,416.5 16.992131,416.5 16.992131,378.6811 27.622051,378.6811 27.622051,341.85433 16.992131,341.85433 16.992131,304.03543 27.622051,304.03543 27.622051,267.20866 16.992131,267.20866 16.992131,229.38976 27.622051,229.38976 27.622051,192.56299 16.992131,192.56299 16.992131,154.99213"
         style="fill:none;stroke:#000000"
         inkscape:label="part"
         inkscape:connector-curvature="0" />
    </g>
    <path
       inkscape:connector-curvature="0"
       id="path3797"
       d="M 1480,5 1480,15.625 1448.3438,15.625 1448.3438,42.0625 1437.7188,42.0625 1437.7188,79.875 1448.3438,79.875 1448.3438,116.71875 1437.7188,116.71875 1437.7188,154.53125 1448.3438,154.53125 1448.3438,191.34375 1437.7188,191.34375 1437.7188,433.90625 1453.9375,433.90625 C 1458.845,433.90625 1462.7812,437.87377 1462.7812,442.78125 1462.7812,447.68873 1458.845,451.625 1453.9375,451.625 L 1437.7188,451.625 1437.7188,527.75 1448.3438,527.75 1448.3438,554.21875 1480,554.21875 1480,564.84375 1523,564.84375 1523,554.21875 1554.6562,554.21875 1554.6562,527.75 1565.2812,527.75 1565.2812,489.9375 1554.6562,489.9375 1554.6562,453.125 1565.2812,453.125 1565.2812,415.28125 1554.6562,415.28125 1554.6562,378.46875 1565.2812,378.46875 1565.2812,340.65625 1554.6562,340.65625 1554.6562,303.8125 1565.2812,303.8125 1565.2812,266 1554.6562,266 1554.6562,229.1875 1565.2812,229.1875 1565.2812,191.34375 1554.6562,191.34375 1554.6562,154.53125 1565.2812,154.53125 1565.2812,116.71875 1554.6562,116.71875 1554.6562,79.875 1565.2812,79.875 1565.2812,42.0625 1554.6562,42.0625 1554.6562,15.625 1523,15.625 1523,5 1480,5 z"
       style="fill:none;stroke:#000000" />
    <path
       inkscape:connector-curvature="0"
       id="path3787"
       d="M 50.71875,712.5625 50.71875,723.1875 15,723.1875 15,755.3125 25.625,755.3125 25.625,797.34375 15,797.34375 15,829.46875 50.71875,829.46875 50.71875,840.125 111.875,840.125 111.875,823.4375 C 111.875,818.53002 115.81127,814.5625 120.71875,814.5625 125.62623,814.5625 129.59375,818.53002 129.59375,823.4375 L 129.59375,840.125 1382.4062,840.125 1382.4062,829.46875 1418.1562,829.46875 1418.1562,797.34375 1407.5,797.34375 1407.5,755.3125 1418.1562,755.3125 1418.1562,723.1875 1382.4062,723.1875 1382.4062,712.5625 1345.9375,712.5625 1345.9375,723.1875 1310.4688,723.1875 1310.4688,712.5625 1273.9688,712.5625 1273.9688,723.1875 1238.5,723.1875 1238.5,712.5625 1202.0312,712.5625 1202.0312,723.1875 1166.5312,723.1875 1166.5312,712.5625 1130.0625,712.5625 1130.0625,723.1875 1094.5938,723.1875 1094.5938,712.5625 1058.125,712.5625 1058.125,723.1875 1022.625,723.1875 1022.625,712.5625 986.15625,712.5625 986.15625,723.1875 950.6875,723.1875 950.6875,712.5625 914.1875,712.5625 914.1875,723.1875 878.71875,723.1875 878.71875,712.5625 842.25,712.5625 842.25,723.1875 806.75,723.1875 806.75,712.5625 770.28125,712.5625 770.28125,723.1875 734.8125,723.1875 734.8125,712.5625 698.34375,712.5625 698.34375,723.1875 662.84375,723.1875 662.84375,712.5625 626.375,712.5625 626.375,723.1875 590.90625,723.1875 590.90625,712.5625 554.40625,712.5625 554.40625,723.1875 518.9375,723.1875 518.9375,712.5625 482.46875,712.5625 482.46875,723.1875 446.96875,723.1875 446.96875,712.5625 410.5,712.5625 410.5,723.1875 375.03125,723.1875 375.03125,712.5625 338.5625,712.5625 338.5625,723.1875 303.0625,723.1875 303.0625,712.5625 266.59375,712.5625 266.59375,723.1875 231.09375,723.1875 231.09375,712.5625 194.625,712.5625 194.625,723.1875 159.15625,723.1875 159.15625,712.5625 122.6875,712.5625 122.6875,723.1875 87.1875,723.1875 87.1875,712.5625 50.71875,712.5625 z"
       style="fill:none;stroke:#000000" />
  </g>
  <g
     style="display:inline"
     inkscape:label="Test"
     id="layer2"
     inkscape:groupmode="layer">
    <path
       id="path7767"
       d="M 1586.9921,928.33071 1610.0287,928.33071 1610.0287,917.70078 1633.8093,917.70078 1633.8093,928.33071 1656.5979,928.33071 1656.5979,917.70078 1680.3785,917.70078 1680.3785,928.33071 1703.167,928.33071 1703.167,917.70078 1726.9477,917.70078 1726.9477,928.33071 1749.9842,928.33071"
       style="fill:none;stroke:#0000ff"
       inkscape:label="part"
       inkscape:connector-curvature="0" />
    <path
       id="path7769"
       d="M 1749.9842,928.33071 1749.9842,943.46063 1739.3543,943.46063 1739.3543,968.47638 1749.9842,968.47638 1749.9842,994.48425 1739.3543,994.48425 1739.3543,1019.5 1749.9842,1019.5 1749.9842,1034.6299"
       style="fill:none;stroke:#0000ff"
       inkscape:label="part"
       inkscape:connector-curvature="0" />
    <path
       id="path7771"
       d="M 1749.9842,1034.6299 1726.9477,1034.6299 1726.9477,1045.2598 1703.167,1045.2598 1703.167,1034.6299 1680.3785,1034.6299 1680.3785,1045.2598 1656.5979,1045.2598 1656.5979,1034.6299 1633.8093,1034.6299 1633.8093,1045.2598 1610.0287,1045.2598 1610.0287,1034.6299 1586.9921,1034.6299"
       style="fill:none;stroke:#0000ff"
       inkscape:label="part"
       inkscape:connector-curvature="0" />
    <path
       id="path7773"
       d="M 1586.9921,1034.6299 1586.9921,1019.5 1597.622,1019.5 1597.622,994.48425 1586.9921,994.48425 1586.9921,968.47638 1597.622,968.47638 1597.622,943.46063 1586.9921,943.46063 1586.9921,928.33071"
       style="fill:none;stroke:#0000ff"
       inkscape:label="part"
       inkscape:connector-curvature="0" />
    <path
       id="path7775"
       d="M 1452.3464,603.62204 1466.9803,603.62204 1466.9803,592.99212 1492.9882,592.99212 1492.9882,603.62204 1518.0039,603.62204 1518.0039,592.99212 1544.0118,592.99212 1544.0118,603.62204 1558.6457,603.62204"
       style="fill:none;stroke:#0000ff"
       inkscape:label="part"
       inkscape:connector-curvature="0" />
    <path
       id="path7777"
       d="M 1558.6457,603.62204 1558.6457,616.02868 1569.2756,616.02868 1569.2756,639.80933 1558.6457,639.80933 1558.6457,662.59786 1569.2756,662.59786 1569.2756,686.37851 1558.6457,686.37851 1558.6457,709.16704 1569.2756,709.16704 1569.2756,732.94769 1558.6457,732.94769 1558.6457,745.35433"
       style="fill:none;stroke:#0000ff"
       inkscape:label="part"
       inkscape:connector-curvature="0" />
    <path
       id="path7779"
       d="M 1558.6457,745.35433 1544.0118,745.35433 1544.0118,755.98425 1518.0039,755.98425 1518.0039,745.35433 1492.9882,745.35433 1492.9882,755.98425 1466.9803,755.98425 1466.9803,745.35433 1452.3464,745.35433"
       style="fill:none;stroke:#0000ff"
       inkscape:label="part"
       inkscape:connector-curvature="0" />
    <path
       id="path7781"
       d="M 1452.3464,745.35433 1452.3464,732.94769 1441.7165,732.94769 1441.7165,709.16704 1452.3464,709.16704 1452.3464,686.37851 1441.7165,686.37851 1441.7165,662.59786 1452.3464,662.59786 1452.3464,639.80933 1441.7165,639.80933 1441.7165,616.02868 1452.3464,616.02868 1452.3464,603.62204"
       style="fill:none;stroke:#0000ff"
       inkscape:label="part"
       inkscape:connector-curvature="0" />
    <path
       id="path7783"
       d="M 1586.9921,736.99212 1610.5247,736.99212 1610.5247,747.62204 1633.3133,747.62204 1633.3133,736.99212 1657.0939,736.99212 1657.0939,747.62204 1679.8824,747.62204 1679.8824,736.99212 1703.6631,736.99212 1703.6631,747.62204 1726.4516,747.62204 1726.4516,736.99212 1749.9842,736.99212"
       style="fill:none;stroke:#0000ff"
       inkscape:label="part"
       inkscape:connector-curvature="0" />
    <path
       id="path7785"
       d="M 1749.9842,736.99212 1749.9842,760.52474 1739.3543,760.52474 1739.3543,783.31327 1749.9842,783.31327 1749.9842,807.09392 1739.3543,807.09392 1739.3543,829.88245 1749.9842,829.88245 1749.9842,853.6631 1739.3543,853.6631 1739.3543,876.45163 1749.9842,876.45163 1749.9842,899.98425"
       style="fill:none;stroke:#0000ff"
       inkscape:label="part"
       inkscape:connector-curvature="0" />
    <path
       id="path7787"
       d="M 1749.9842,899.98425 1726.4516,899.98425 1726.4516,889.35433 1703.6631,889.35433 1703.6631,899.98425 1679.8824,899.98425 1679.8824,889.35433 1657.0939,889.35433 1657.0939,899.98425 1633.3133,899.98425 1633.3133,889.35433 1610.5247,889.35433 1610.5247,899.98425 1586.9921,899.98425"
       style="fill:none;stroke:#0000ff"
       inkscape:label="part"
       inkscape:connector-curvature="0" />
    <path
       id="path7789"
       d="M 1586.9921,899.98425 1586.9921,876.45163 1597.622,876.45163 1597.622,853.6631 1586.9921,853.6631 1586.9921,829.88245 1597.622,829.88245 1597.622,807.09392 1586.9921,807.09392 1586.9921,783.31327 1597.622,783.31327 1597.622,760.52474 1586.9921,760.52474 1586.9921,736.99212"
       style="fill:none;stroke:#0000ff"
       inkscape:label="part"
       inkscape:connector-curvature="0" />
    <path
       id="path7791"
       d="M 1450.3307,779.62204 1464.9646,779.62204 1464.9646,768.99212 1490.9724,768.99212 1490.9724,779.62204 1515.9882,779.62204 1515.9882,768.99212 1541.9961,768.99212 1541.9961,779.62204 1556.6299,779.62204"
       style="fill:none;stroke:#0000ff"
       inkscape:label="part"
       inkscape:connector-curvature="0" />
    <path
       id="path7793"
       d="M 1556.6299,779.62204 1556.6299,792.02868 1567.2598,792.02868 1567.2598,815.80933 1556.6299,815.80933 1556.6299,838.59786 1567.2598,838.59786 1567.2598,862.3785 1556.6299,862.3785 1556.6299,885.167 1567.2598,885.167 1567.2598,908.9477 1556.6299,908.9477 1556.6299,921.3543"
       style="fill:none;stroke:#0000ff"
       inkscape:label="part"
       inkscape:connector-curvature="0" />
    <path
       id="path7795"
       d="M 1556.6299,921.3543 1541.9961,921.3543 1541.9961,931.9842 1515.9882,931.9842 1515.9882,921.3543 1490.9724,921.3543 1490.9724,931.9842 1464.9646,931.9842 1464.9646,921.3543 1450.3307,921.3543"
       style="fill:none;stroke:#0000ff"
       inkscape:label="part"
       inkscape:connector-curvature="0" />
    <path
       id="path7797"
       d="M 1450.3307,921.3543 1450.3307,908.9477 1439.7008,908.9477 1439.7008,885.167 1450.3307,885.167 1450.3307,862.3785 1439.7008,862.3785 1439.7008,838.59786 1450.3307,838.59786 1450.3307,815.80933 1439.7008,815.80933 1439.7008,792.02868 1450.3307,792.02868 1450.3307,779.62204"
       style="fill:none;stroke:#0000ff"
       inkscape:label="part"
       inkscape:connector-curvature="0" />
    <path
       id="path7807"
       d="M 1586.9921,602.34645 1610.0287,602.34645 1610.0287,591.71653 1633.8093,591.71653 1633.8093,602.34645 1656.5979,602.34645 1656.5979,591.71653 1680.3785,591.71653 1680.3785,602.34645 1703.167,602.34645 1703.167,591.71653 1726.9477,591.71653 1726.9477,602.34645 1749.9842,602.34645"
       style="fill:none;stroke:#0000ff"
       inkscape:label="part"
       inkscape:connector-curvature="0" />
    <path
       id="path7809"
       d="M 1749.9842,602.34645 1749.9842,617.47638 1739.3543,617.47638 1739.3543,642.49212 1749.9842,642.49212 1749.9842,668.5 1739.3543,668.5 1739.3543,693.51575 1749.9842,693.51575 1749.9842,708.64567"
       style="fill:none;stroke:#0000ff"
       inkscape:label="part"
       inkscape:connector-curvature="0" />
    <path
       id="path7811"
       d="M 1749.9842,708.64567 1726.9477,708.64567 1726.9477,719.27559 1703.167,719.27559 1703.167,708.64567 1680.3785,708.64567 1680.3785,719.27559 1656.5979,719.27559 1656.5979,708.64567 1633.8093,708.64567 1633.8093,719.27559 1610.0287,719.27559 1610.0287,708.64567 1586.9921,708.64567"
       style="fill:none;stroke:#0000ff"
       inkscape:label="part"
       inkscape:connector-curvature="0" />
    <path
       id="path7813"
       d="M 1586.9921,708.64567 1586.9921,693.51575 1597.622,693.51575 1597.622,668.5 1586.9921,668.5 1586.9921,642.49212 1597.622,642.49212 1597.622,617.47638 1586.9921,617.47638 1586.9921,602.34645"
       style="fill:none;stroke:#0000ff"
       inkscape:label="part"
       inkscape:connector-curvature="0" />
    <rect
       style="fill:none;stroke:#00ff00;stroke-width:0.50000000000000000;stroke-opacity:1"
       id="rect7870"
       width="106"
       height="96"
       x="1614"
       y="768.99207"
       ry="20" />
  </g>
  <g
     id="g7815"
     inkscape:groupmode="layer"
     inkscape:label="newlayer" />
</svg>
